<mxfile host="app.diagrams.net" agent="Mozilla/5.0 (X11; Linux x86_64) AppleWebKit/537.36 (KHTML, like Gecko) Chrome/126.0.0.0 YaBrowser/24.7.0.0 Safari/537.36" version="24.8.0">
  <diagram name="Page-1" id="0783ab3e-0a74-02c8-0abd-f7b4e66b4bec">
    <mxGraphModel dx="1111" dy="627" grid="0" gridSize="10" guides="1" tooltips="1" connect="1" arrows="1" fold="1" page="0" pageScale="1" pageWidth="850" pageHeight="1100" background="none" math="0" shadow="0">
      <root>
        <mxCell id="0" />
        <mxCell id="1" parent="0" />
        <mxCell id="URqVQ1jmRPrwKe5BGIQy-42" style="edgeStyle=orthogonalEdgeStyle;rounded=0;orthogonalLoop=1;jettySize=auto;html=1;exitX=0.507;exitY=0.897;exitDx=0;exitDy=0;entryX=0.5;entryY=0;entryDx=0;entryDy=0;exitPerimeter=0;" parent="1" source="URqVQ1jmRPrwKe5BGIQy-1" target="URqVQ1jmRPrwKe5BGIQy-6" edge="1">
          <mxGeometry relative="1" as="geometry" />
        </mxCell>
        <mxCell id="URqVQ1jmRPrwKe5BGIQy-1" value="" style="ellipse;html=1;shape=startState;fillColor=#000000;strokeColor=#ff0000;" parent="1" vertex="1">
          <mxGeometry x="425" y="40" width="30" height="30" as="geometry" />
        </mxCell>
        <mxCell id="URqVQ1jmRPrwKe5BGIQy-43" style="edgeStyle=orthogonalEdgeStyle;rounded=0;orthogonalLoop=1;jettySize=auto;html=1;exitX=0;exitY=0.5;exitDx=0;exitDy=0;" parent="1" source="URqVQ1jmRPrwKe5BGIQy-6" target="URqVQ1jmRPrwKe5BGIQy-11" edge="1">
          <mxGeometry relative="1" as="geometry" />
        </mxCell>
        <mxCell id="URqVQ1jmRPrwKe5BGIQy-44" style="edgeStyle=orthogonalEdgeStyle;rounded=0;orthogonalLoop=1;jettySize=auto;html=1;exitX=1;exitY=0.5;exitDx=0;exitDy=0;" parent="1" source="URqVQ1jmRPrwKe5BGIQy-6" target="URqVQ1jmRPrwKe5BGIQy-15" edge="1">
          <mxGeometry relative="1" as="geometry" />
        </mxCell>
        <mxCell id="URqVQ1jmRPrwKe5BGIQy-6" value="" style="rhombus;whiteSpace=wrap;html=1;" parent="1" vertex="1">
          <mxGeometry x="430" y="100" width="20" height="30" as="geometry" />
        </mxCell>
        <mxCell id="URqVQ1jmRPrwKe5BGIQy-8" value="sd Interaction" style="shape=umlFrame;whiteSpace=wrap;html=1;pointerEvents=0;width=90;height=20;" parent="1" vertex="1">
          <mxGeometry x="77" y="270" width="353" height="200" as="geometry" />
        </mxCell>
        <mxCell id="URqVQ1jmRPrwKe5BGIQy-11" value="&lt;span style=&quot;font-size: 11px; text-align: left; text-wrap: nowrap; background-color: rgb(255, 255, 255);&quot;&gt;ref&lt;/span&gt;" style="shape=umlFrame;whiteSpace=wrap;html=1;pointerEvents=0;width=50;height=20;" parent="1" vertex="1">
          <mxGeometry x="225" y="150" width="110" height="60" as="geometry" />
        </mxCell>
        <mxCell id="URqVQ1jmRPrwKe5BGIQy-12" value="syncRequest" style="text;html=1;align=center;verticalAlign=middle;resizable=0;points=[];autosize=1;strokeColor=none;fillColor=none;" parent="1" vertex="1">
          <mxGeometry x="237" y="176" width="87" height="26" as="geometry" />
        </mxCell>
        <mxCell id="URqVQ1jmRPrwKe5BGIQy-15" value="&lt;span style=&quot;font-size: 11px; text-align: left; text-wrap: nowrap; background-color: rgb(255, 255, 255);&quot;&gt;ref&lt;/span&gt;" style="shape=umlFrame;whiteSpace=wrap;html=1;pointerEvents=0;width=50;height=20;" parent="1" vertex="1">
          <mxGeometry x="537" y="150" width="123" height="60" as="geometry" />
        </mxCell>
        <mxCell id="URqVQ1jmRPrwKe5BGIQy-16" value="analyticsRequest" style="text;html=1;align=center;verticalAlign=middle;resizable=0;points=[];autosize=1;strokeColor=none;fillColor=none;" parent="1" vertex="1">
          <mxGeometry x="546" y="176" width="109" height="26" as="geometry" />
        </mxCell>
        <mxCell id="URqVQ1jmRPrwKe5BGIQy-18" value="" style="shape=umlLifeline;perimeter=lifelinePerimeter;whiteSpace=wrap;html=1;container=1;dropTarget=0;collapsible=0;recursiveResize=0;outlineConnect=0;portConstraint=eastwest;newEdgeStyle={&quot;curved&quot;:0,&quot;rounded&quot;:0};participant=umlActor;size=30;" parent="1" vertex="1">
          <mxGeometry x="109" y="300" width="20" height="160" as="geometry" />
        </mxCell>
        <mxCell id="URqVQ1jmRPrwKe5BGIQy-19" value="" style="html=1;points=[[0,0,0,0,5],[0,1,0,0,-5],[1,0,0,0,5],[1,1,0,0,-5]];perimeter=orthogonalPerimeter;outlineConnect=0;targetShapes=umlLifeline;portConstraint=eastwest;newEdgeStyle={&quot;curved&quot;:0,&quot;rounded&quot;:0};" parent="URqVQ1jmRPrwKe5BGIQy-18" vertex="1">
          <mxGeometry x="5" y="40" width="10" height="100" as="geometry" />
        </mxCell>
        <mxCell id="URqVQ1jmRPrwKe5BGIQy-20" value=":SyncSystem" style="shape=umlLifeline;perimeter=lifelinePerimeter;whiteSpace=wrap;html=1;container=1;dropTarget=0;collapsible=0;recursiveResize=0;outlineConnect=0;portConstraint=eastwest;newEdgeStyle={&quot;curved&quot;:0,&quot;rounded&quot;:0};size=40;" parent="1" vertex="1">
          <mxGeometry x="280" y="290" width="80" height="160" as="geometry" />
        </mxCell>
        <mxCell id="URqVQ1jmRPrwKe5BGIQy-25" value="" style="html=1;points=[[0,0,0,0,5],[0,1,0,0,-5],[1,0,0,0,5],[1,1,0,0,-5]];perimeter=orthogonalPerimeter;outlineConnect=0;targetShapes=umlLifeline;portConstraint=eastwest;newEdgeStyle={&quot;curved&quot;:0,&quot;rounded&quot;:0};" parent="URqVQ1jmRPrwKe5BGIQy-20" vertex="1">
          <mxGeometry x="35" y="60" width="10" height="70" as="geometry" />
        </mxCell>
        <mxCell id="URqVQ1jmRPrwKe5BGIQy-27" style="edgeStyle=orthogonalEdgeStyle;rounded=0;orthogonalLoop=1;jettySize=auto;html=1;curved=0;exitX=1;exitY=0;exitDx=0;exitDy=5;exitPerimeter=0;" parent="URqVQ1jmRPrwKe5BGIQy-20" edge="1">
          <mxGeometry relative="1" as="geometry">
            <mxPoint x="45" y="82.5" as="sourcePoint" />
            <mxPoint x="45" y="97.5" as="targetPoint" />
            <Array as="points">
              <mxPoint x="65" y="82.5" />
              <mxPoint x="65" y="97.5" />
            </Array>
          </mxGeometry>
        </mxCell>
        <mxCell id="URqVQ1jmRPrwKe5BGIQy-28" value="1.2:synchronyse" style="edgeLabel;html=1;align=center;verticalAlign=middle;resizable=0;points=[];" parent="URqVQ1jmRPrwKe5BGIQy-27" vertex="1" connectable="0">
          <mxGeometry x="0.1862" relative="1" as="geometry">
            <mxPoint x="28" y="-22" as="offset" />
          </mxGeometry>
        </mxCell>
        <mxCell id="URqVQ1jmRPrwKe5BGIQy-21" value=":UI" style="shape=umlLifeline;perimeter=lifelinePerimeter;whiteSpace=wrap;html=1;container=1;dropTarget=0;collapsible=0;recursiveResize=0;outlineConnect=0;portConstraint=eastwest;newEdgeStyle={&quot;curved&quot;:0,&quot;rounded&quot;:0};size=40;" parent="1" vertex="1">
          <mxGeometry x="169" y="290" width="80" height="160" as="geometry" />
        </mxCell>
        <mxCell id="URqVQ1jmRPrwKe5BGIQy-23" value="" style="html=1;points=[[0,0,0,0,5],[0,1,0,0,-5],[1,0,0,0,5],[1,1,0,0,-5]];perimeter=orthogonalPerimeter;outlineConnect=0;targetShapes=umlLifeline;portConstraint=eastwest;newEdgeStyle={&quot;curved&quot;:0,&quot;rounded&quot;:0};" parent="URqVQ1jmRPrwKe5BGIQy-21" vertex="1">
          <mxGeometry x="35" y="50" width="10" height="100" as="geometry" />
        </mxCell>
        <mxCell id="URqVQ1jmRPrwKe5BGIQy-22" value="1:request" style="html=1;verticalAlign=bottom;endArrow=block;curved=0;rounded=0;" parent="1" edge="1">
          <mxGeometry width="80" relative="1" as="geometry">
            <mxPoint x="124" y="350" as="sourcePoint" />
            <mxPoint x="204" y="350" as="targetPoint" />
          </mxGeometry>
        </mxCell>
        <mxCell id="URqVQ1jmRPrwKe5BGIQy-24" value="1.1:request" style="html=1;verticalAlign=bottom;endArrow=block;curved=0;rounded=0;" parent="1" edge="1">
          <mxGeometry width="80" relative="1" as="geometry">
            <mxPoint x="214" y="360" as="sourcePoint" />
            <mxPoint x="314" y="360" as="targetPoint" />
          </mxGeometry>
        </mxCell>
        <mxCell id="URqVQ1jmRPrwKe5BGIQy-29" value="response" style="html=1;verticalAlign=bottom;endArrow=open;dashed=1;endSize=8;curved=0;rounded=0;" parent="1" target="URqVQ1jmRPrwKe5BGIQy-23" edge="1">
          <mxGeometry relative="1" as="geometry">
            <mxPoint x="314" y="400" as="sourcePoint" />
            <mxPoint x="219" y="400" as="targetPoint" />
          </mxGeometry>
        </mxCell>
        <mxCell id="URqVQ1jmRPrwKe5BGIQy-30" value="sd Interaction" style="shape=umlFrame;whiteSpace=wrap;html=1;pointerEvents=0;width=90;height=20;" parent="1" vertex="1">
          <mxGeometry x="450" y="270" width="416" height="200" as="geometry" />
        </mxCell>
        <mxCell id="URqVQ1jmRPrwKe5BGIQy-31" value="" style="shape=umlLifeline;perimeter=lifelinePerimeter;whiteSpace=wrap;html=1;container=1;dropTarget=0;collapsible=0;recursiveResize=0;outlineConnect=0;portConstraint=eastwest;newEdgeStyle={&quot;curved&quot;:0,&quot;rounded&quot;:0};participant=umlActor;size=30;" parent="1" vertex="1">
          <mxGeometry x="470" y="300" width="20" height="160" as="geometry" />
        </mxCell>
        <mxCell id="URqVQ1jmRPrwKe5BGIQy-32" value="" style="html=1;points=[[0,0,0,0,5],[0,1,0,0,-5],[1,0,0,0,5],[1,1,0,0,-5]];perimeter=orthogonalPerimeter;outlineConnect=0;targetShapes=umlLifeline;portConstraint=eastwest;newEdgeStyle={&quot;curved&quot;:0,&quot;rounded&quot;:0};" parent="URqVQ1jmRPrwKe5BGIQy-31" vertex="1">
          <mxGeometry x="5" y="40" width="10" height="100" as="geometry" />
        </mxCell>
        <mxCell id="URqVQ1jmRPrwKe5BGIQy-33" value=":Database" style="shape=umlLifeline;perimeter=lifelinePerimeter;whiteSpace=wrap;html=1;container=1;dropTarget=0;collapsible=0;recursiveResize=0;outlineConnect=0;portConstraint=eastwest;newEdgeStyle={&quot;curved&quot;:0,&quot;rounded&quot;:0};size=40;" parent="1" vertex="1">
          <mxGeometry x="640" y="290" width="80" height="160" as="geometry" />
        </mxCell>
        <mxCell id="URqVQ1jmRPrwKe5BGIQy-34" value="" style="html=1;points=[[0,0,0,0,5],[0,1,0,0,-5],[1,0,0,0,5],[1,1,0,0,-5]];perimeter=orthogonalPerimeter;outlineConnect=0;targetShapes=umlLifeline;portConstraint=eastwest;newEdgeStyle={&quot;curved&quot;:0,&quot;rounded&quot;:0};" parent="URqVQ1jmRPrwKe5BGIQy-33" vertex="1">
          <mxGeometry x="35" y="60" width="10" height="41" as="geometry" />
        </mxCell>
        <mxCell id="URqVQ1jmRPrwKe5BGIQy-37" value=":UI" style="shape=umlLifeline;perimeter=lifelinePerimeter;whiteSpace=wrap;html=1;container=1;dropTarget=0;collapsible=0;recursiveResize=0;outlineConnect=0;portConstraint=eastwest;newEdgeStyle={&quot;curved&quot;:0,&quot;rounded&quot;:0};size=40;" parent="1" vertex="1">
          <mxGeometry x="530" y="290" width="80" height="160" as="geometry" />
        </mxCell>
        <mxCell id="URqVQ1jmRPrwKe5BGIQy-38" value="" style="html=1;points=[[0,0,0,0,5],[0,1,0,0,-5],[1,0,0,0,5],[1,1,0,0,-5]];perimeter=orthogonalPerimeter;outlineConnect=0;targetShapes=umlLifeline;portConstraint=eastwest;newEdgeStyle={&quot;curved&quot;:0,&quot;rounded&quot;:0};" parent="URqVQ1jmRPrwKe5BGIQy-37" vertex="1">
          <mxGeometry x="35" y="50" width="10" height="100" as="geometry" />
        </mxCell>
        <mxCell id="URqVQ1jmRPrwKe5BGIQy-39" value="1:request" style="html=1;verticalAlign=bottom;endArrow=block;curved=0;rounded=0;" parent="1" edge="1">
          <mxGeometry width="80" relative="1" as="geometry">
            <mxPoint x="485" y="350" as="sourcePoint" />
            <mxPoint x="565" y="350" as="targetPoint" />
          </mxGeometry>
        </mxCell>
        <mxCell id="URqVQ1jmRPrwKe5BGIQy-40" value="1.1:request" style="html=1;verticalAlign=bottom;endArrow=block;curved=0;rounded=0;" parent="1" edge="1">
          <mxGeometry width="80" relative="1" as="geometry">
            <mxPoint x="575" y="360" as="sourcePoint" />
            <mxPoint x="675" y="360" as="targetPoint" />
          </mxGeometry>
        </mxCell>
        <mxCell id="URqVQ1jmRPrwKe5BGIQy-41" value="response" style="html=1;verticalAlign=bottom;endArrow=open;dashed=1;endSize=8;curved=0;rounded=0;" parent="1" target="URqVQ1jmRPrwKe5BGIQy-38" edge="1" source="URqVQ1jmRPrwKe5BGIQy-34">
          <mxGeometry relative="1" as="geometry">
            <mxPoint x="675" y="400" as="sourcePoint" />
            <mxPoint x="580" y="400" as="targetPoint" />
            <Array as="points">
              <mxPoint x="651" y="384" />
            </Array>
          </mxGeometry>
        </mxCell>
        <mxCell id="URqVQ1jmRPrwKe5BGIQy-45" value="" style="endArrow=classic;html=1;rounded=0;exitX=0.497;exitY=1.007;exitDx=0;exitDy=0;exitPerimeter=0;" parent="1" source="URqVQ1jmRPrwKe5BGIQy-11" edge="1">
          <mxGeometry width="50" height="50" relative="1" as="geometry">
            <mxPoint x="290" y="260" as="sourcePoint" />
            <mxPoint x="279" y="270" as="targetPoint" />
          </mxGeometry>
        </mxCell>
        <mxCell id="URqVQ1jmRPrwKe5BGIQy-46" value="" style="endArrow=classic;html=1;rounded=0;exitX=0.497;exitY=1.007;exitDx=0;exitDy=0;exitPerimeter=0;" parent="1" edge="1">
          <mxGeometry width="50" height="50" relative="1" as="geometry">
            <mxPoint x="600.5" y="210" as="sourcePoint" />
            <mxPoint x="599.5" y="270" as="targetPoint" />
          </mxGeometry>
        </mxCell>
        <mxCell id="URqVQ1jmRPrwKe5BGIQy-47" style="edgeStyle=orthogonalEdgeStyle;rounded=0;orthogonalLoop=1;jettySize=auto;html=1;exitX=0.495;exitY=1.011;exitDx=0;exitDy=0;exitPerimeter=0;entryX=0;entryY=0.5;entryDx=0;entryDy=0;" parent="1" source="URqVQ1jmRPrwKe5BGIQy-8" target="URqVQ1jmRPrwKe5BGIQy-49" edge="1">
          <mxGeometry relative="1" as="geometry">
            <mxPoint x="265" y="640" as="targetPoint" />
          </mxGeometry>
        </mxCell>
        <mxCell id="URqVQ1jmRPrwKe5BGIQy-48" style="edgeStyle=orthogonalEdgeStyle;rounded=0;orthogonalLoop=1;jettySize=auto;html=1;exitX=0.502;exitY=1.001;exitDx=0;exitDy=0;exitPerimeter=0;entryX=1;entryY=0.5;entryDx=0;entryDy=0;" parent="1" source="URqVQ1jmRPrwKe5BGIQy-30" target="URqVQ1jmRPrwKe5BGIQy-49" edge="1">
          <mxGeometry relative="1" as="geometry">
            <mxPoint x="585" y="640" as="targetPoint" />
          </mxGeometry>
        </mxCell>
        <mxCell id="URqVQ1jmRPrwKe5BGIQy-49" value="" style="rhombus;whiteSpace=wrap;html=1;" parent="1" vertex="1">
          <mxGeometry x="430" y="500" width="20" height="30" as="geometry" />
        </mxCell>
        <mxCell id="URqVQ1jmRPrwKe5BGIQy-50" value="&lt;span style=&quot;font-size: 11px; text-align: left; text-wrap: nowrap; background-color: rgb(255, 255, 255);&quot;&gt;ref&lt;/span&gt;" style="shape=umlFrame;whiteSpace=wrap;html=1;pointerEvents=0;width=50;height=20;" parent="1" vertex="1">
          <mxGeometry x="385" y="560" width="110" height="60" as="geometry" />
        </mxCell>
        <mxCell id="URqVQ1jmRPrwKe5BGIQy-51" value="&lt;div style=&quot;text-align: left;&quot;&gt;&lt;span style=&quot;font-size: 11px; background-color: rgb(255, 255, 255);&quot;&gt;Write Logs&lt;/span&gt;&lt;/div&gt;" style="text;html=1;align=center;verticalAlign=middle;resizable=0;points=[];autosize=1;strokeColor=none;fillColor=none;" parent="1" vertex="1">
          <mxGeometry x="400" y="584" width="80" height="30" as="geometry" />
        </mxCell>
        <mxCell id="URqVQ1jmRPrwKe5BGIQy-52" value="" style="ellipse;html=1;shape=endState;fillColor=#000000;strokeColor=#ff0000;" parent="1" vertex="1">
          <mxGeometry x="425" y="650" width="30" height="30" as="geometry" />
        </mxCell>
        <mxCell id="URqVQ1jmRPrwKe5BGIQy-53" style="edgeStyle=orthogonalEdgeStyle;rounded=0;orthogonalLoop=1;jettySize=auto;html=1;exitX=0.5;exitY=1;exitDx=0;exitDy=0;entryX=0.501;entryY=-0.001;entryDx=0;entryDy=0;entryPerimeter=0;" parent="1" source="URqVQ1jmRPrwKe5BGIQy-49" target="URqVQ1jmRPrwKe5BGIQy-50" edge="1">
          <mxGeometry relative="1" as="geometry" />
        </mxCell>
        <mxCell id="URqVQ1jmRPrwKe5BGIQy-54" style="edgeStyle=orthogonalEdgeStyle;rounded=0;orthogonalLoop=1;jettySize=auto;html=1;exitX=0.5;exitY=1;exitDx=0;exitDy=0;entryX=0.501;entryY=-0.001;entryDx=0;entryDy=0;entryPerimeter=0;" parent="1" edge="1">
          <mxGeometry relative="1" as="geometry">
            <mxPoint x="439.81" y="620" as="sourcePoint" />
            <mxPoint x="439.81" y="650" as="targetPoint" />
          </mxGeometry>
        </mxCell>
        <mxCell id="gwc7lDmh4BTRgtyS1LAV-1" value=":Analytics Service" style="shape=umlLifeline;perimeter=lifelinePerimeter;whiteSpace=wrap;html=1;container=1;dropTarget=0;collapsible=0;recursiveResize=0;outlineConnect=0;portConstraint=eastwest;newEdgeStyle={&quot;curved&quot;:0,&quot;rounded&quot;:0};size=40;" vertex="1" parent="1">
          <mxGeometry x="752" y="292" width="80" height="160" as="geometry" />
        </mxCell>
        <mxCell id="gwc7lDmh4BTRgtyS1LAV-2" value="" style="html=1;points=[[0,0,0,0,5],[0,1,0,0,-5],[1,0,0,0,5],[1,1,0,0,-5]];perimeter=orthogonalPerimeter;outlineConnect=0;targetShapes=umlLifeline;portConstraint=eastwest;newEdgeStyle={&quot;curved&quot;:0,&quot;rounded&quot;:0};" vertex="1" parent="gwc7lDmh4BTRgtyS1LAV-1">
          <mxGeometry x="35" y="60" width="10" height="83" as="geometry" />
        </mxCell>
        <mxCell id="gwc7lDmh4BTRgtyS1LAV-5" style="edgeStyle=orthogonalEdgeStyle;rounded=0;orthogonalLoop=1;jettySize=auto;html=1;curved=0;exitX=1;exitY=0;exitDx=0;exitDy=5;exitPerimeter=0;" edge="1" parent="1">
          <mxGeometry relative="1" as="geometry">
            <mxPoint x="687" y="356" as="sourcePoint" />
            <mxPoint x="687" y="371" as="targetPoint" />
            <Array as="points">
              <mxPoint x="707" y="356" />
              <mxPoint x="707" y="371" />
            </Array>
          </mxGeometry>
        </mxCell>
        <mxCell id="gwc7lDmh4BTRgtyS1LAV-6" value="1.2: check&amp;amp;&lt;div&gt;select&lt;/div&gt;" style="edgeLabel;html=1;align=center;verticalAlign=middle;resizable=0;points=[];" vertex="1" connectable="0" parent="gwc7lDmh4BTRgtyS1LAV-5">
          <mxGeometry x="0.1862" relative="1" as="geometry">
            <mxPoint x="28" y="-22" as="offset" />
          </mxGeometry>
        </mxCell>
        <mxCell id="gwc7lDmh4BTRgtyS1LAV-8" value="1.3:request" style="html=1;verticalAlign=bottom;endArrow=block;curved=0;rounded=0;" edge="1" parent="1" target="gwc7lDmh4BTRgtyS1LAV-1">
          <mxGeometry width="80" relative="1" as="geometry">
            <mxPoint x="573" y="407" as="sourcePoint" />
            <mxPoint x="675" y="405" as="targetPoint" />
            <Array as="points">
              <mxPoint x="615" y="407" />
            </Array>
          </mxGeometry>
        </mxCell>
        <mxCell id="gwc7lDmh4BTRgtyS1LAV-10" value="response" style="html=1;verticalAlign=bottom;endArrow=open;dashed=1;endSize=8;curved=0;rounded=0;" edge="1" parent="1" source="gwc7lDmh4BTRgtyS1LAV-1" target="URqVQ1jmRPrwKe5BGIQy-38">
          <mxGeometry relative="1" as="geometry">
            <mxPoint x="675" y="384" as="sourcePoint" />
            <mxPoint x="575" y="384" as="targetPoint" />
            <Array as="points">
              <mxPoint x="647" y="428" />
            </Array>
          </mxGeometry>
        </mxCell>
      </root>
    </mxGraphModel>
  </diagram>
</mxfile>
